<svg xmlns="http://www.w3.org/2000/svg" width="1600" height="960" viewBox="0 0 1600 960">
<defs><linearGradient id="bg" x1="0" x2="1"><stop stop-color="#f7f5ee"/><stop offset="1" stop-color="#edf4e9"/></linearGradient><linearGradient id="g" x1="0" x2="1"><stop stop-color="#244f41"/><stop offset="1" stop-color="#3f7852"/></linearGradient></defs>
<rect width="1600" height="960" rx="44" fill="url(#bg)"/><rect x="36" y="36" width="250" height="888" rx="28" fill="#163b31"/><circle cx="94" cy="94" r="30" fill="#b7d66c"/><path d="M83 96c25-32 46-22 40 3-7 25-29 32-40-3Z" fill="#2d6848"/><g fill="#fff" opacity=".18"><rect x="72" y="172" width="178" height="18" rx="9"/><rect x="72" y="222" width="130" height="18" rx="9"/><rect x="72" y="272" width="158" height="18" rx="9"/><rect x="72" y="322" width="105" height="18" rx="9"/><rect x="72" y="372" width="145" height="18" rx="9"/></g><rect x="52" y="151" width="218" height="62" rx="16" fill="#fff" opacity=".08"/><rect x="330" y="48" width="1222" height="78" rx="22" fill="#fff"/><text x="380" y="95" font-family="Arial" font-size="28" fill="#173b32" font-weight="700">Resumen productivo</text><rect x="1320" y="69" width="184" height="36" rx="18" fill="#e8f1db"/><text x="1355" y="93" font-family="Arial" font-size="16" fill="#356447">Temporada 2026</text><text x="350" y="190" font-family="Georgia" font-size="50" fill="#173b32">Finca El Mirador</text><text x="350" y="230" font-family="Arial" font-size="21" fill="#75837b">Indicadores de la operación cafetalera</text>
<g><rect x="350" y="280" width="355" height="150" rx="24" fill="#fff"/><rect x="735" y="280" width="355" height="150" rx="24" fill="#fff"/><rect x="1120" y="280" width="355" height="150" rx="24" fill="#fff"/><text x="385" y="330" font-family="Arial" font-size="18" fill="#7b877f">Lotes activos</text><text x="385" y="390" font-family="Arial" font-size="48" fill="#173b32" font-weight="700">8</text><text x="770" y="330" font-family="Arial" font-size="18" fill="#7b877f">Cosecha del mes</text><text x="770" y="390" font-family="Arial" font-size="48" fill="#173b32" font-weight="700">2,450</text><text x="1155" y="330" font-family="Arial" font-size="18" fill="#7b877f">Inventario</text><text x="1155" y="390" font-family="Arial" font-size="48" fill="#173b32" font-weight="700">84.6 qq</text></g>
<rect x="350" y="470" width="760" height="390" rx="26" fill="#fff"/><text x="390" y="525" font-family="Arial" font-size="21" fill="#173b32" font-weight="700">Producción registrada</text><line x1="410" y1="790" x2="1045" y2="790" stroke="#dfe6df" stroke-width="2"/><g fill="url(#g)"><rect x="430" y="690" width="56" height="100" rx="10"/><rect x="520" y="620" width="56" height="170" rx="10"/><rect x="610" y="650" width="56" height="140" rx="10"/><rect x="700" y="550" width="56" height="240" rx="10"/><rect x="790" y="595" width="56" height="195" rx="10"/><rect x="880" y="510" width="56" height="280" rx="10"/><rect x="970" y="570" width="56" height="220" rx="10"/></g><rect x="1140" y="470" width="335" height="390" rx="26" fill="#fff"/><text x="1180" y="525" font-family="Arial" font-size="21" fill="#173b32" font-weight="700">Actividad reciente</text><g font-family="Arial" font-size="17" fill="#64746b"><circle cx="1190" cy="590" r="7" fill="#7fa75b"/><text x="1215" y="596">Cosecha registrada</text><circle cx="1190" cy="665" r="7" fill="#7fa75b"/><text x="1215" y="671">Inventario actualizado</text><circle cx="1190" cy="740" r="7" fill="#7fa75b"/><text x="1215" y="746">Reporte generado</text></g></svg>
