<svg xmlns="http://www.w3.org/2000/svg" width="1600" height="960" viewBox="0 0 1600 960"><rect width="1600" height="960" rx="44" fill="#f5f6f1"/><rect x="0" width="280" height="960" fill="#163b31"/><text x="60" y="92" font-family="Arial" font-size="30" fill="#fff" font-weight="700">Cafetal OS</text><g fill="#fff" opacity=".16"><rect x="46" y="150" width="188" height="56" rx="14"/><rect x="46" y="224" width="188" height="56" rx="14"/><rect x="46" y="298" width="188" height="56" rx="14"/><rect x="46" y="372" width="188" height="56" rx="14"/></g><rect x="46" y="224" width="188" height="56" rx="14" fill="#b6d56a" opacity=".28"/><text x="332" y="92" font-family="Georgia" font-size="46" fill="#173b32">Lotes</text><text x="332" y="135" font-family="Arial" font-size="19" fill="#75837b">Parcelas, variedades e historial productivo</text><rect x="1270" y="68" width="250" height="54" rx="16" fill="#214f40"/><text x="1328" y="102" font-family="Arial" font-size="18" fill="#fff">+ Nuevo lote</text><rect x="332" y="185" width="1188" height="90" rx="20" fill="#fff"/><rect x="370" y="213" width="390" height="38" rx="12" fill="#f1f3ef"/><text x="392" y="238" font-family="Arial" font-size="16" fill="#8a948d">Buscar por nombre, variedad o código</text><rect x="332" y="310" width="1188" height="540" rx="24" fill="#fff"/><g font-family="Arial"><text x="380" y="365" font-size="16" fill="#718078">Código</text><text x="550" y="365" font-size="16" fill="#718078">Nombre</text><text x="820" y="365" font-size="16" fill="#718078">Variedad</text><text x="1080" y="365" font-size="16" fill="#718078">Área</text><text x="1300" y="365" font-size="16" fill="#718078">Estado</text></g><g stroke="#edf0ec" stroke-width="2"><line x1="370" y1="395" x2="1480" y2="395"/><line x1="370" y1="505" x2="1480" y2="505"/><line x1="370" y1="615" x2="1480" y2="615"/><line x1="370" y1="725" x2="1480" y2="725"/></g><g font-family="Arial" font-size="20" fill="#213d34"><text x="380" y="460">LT-001</text><text x="550" y="460">Lote Norte</text><text x="820" y="460">IHCAFE 90</text><text x="1080" y="460">3.5 mz</text><text x="380" y="570">LT-002</text><text x="550" y="570">La Cumbre</text><text x="820" y="570">Bourbon</text><text x="1080" y="570">2.8 mz</text><text x="380" y="680">LT-003</text><text x="550" y="680">El Bosque</text><text x="820" y="680">Catuai</text><text x="1080" y="680">4.2 mz</text></g><g><rect x="1285" y="427" width="100" height="36" rx="18" fill="#e7f2dd"/><rect x="1285" y="537" width="100" height="36" rx="18" fill="#e7f2dd"/><rect x="1285" y="647" width="100" height="36" rx="18" fill="#e7f2dd"/><g font-family="Arial" font-size="15" fill="#3e724f"><text x="1312" y="451">Activo</text><text x="1312" y="561">Activo</text><text x="1312" y="671">Activo</text></g></g></svg>
