<svg xmlns="http://www.w3.org/2000/svg" width="1600" height="960" viewBox="0 0 1600 960"><rect width="1600" height="960" rx="44" fill="#f5f6f1"/><text x="90" y="105" font-family="Georgia" font-size="52" fill="#173b32">Reportes</text><text x="90" y="150" font-family="Arial" font-size="20" fill="#718078">Resultados consolidados y exportaciones</text><rect x="1240" y="70" width="128" height="48" rx="14" fill="#fff" stroke="#dce4dc"/><rect x="1380" y="70" width="128" height="48" rx="14" fill="#214f40"/><text x="1278" y="101" font-family="Arial" font-size="16" fill="#49665a">Excel</text><text x="1424" y="101" font-family="Arial" font-size="16" fill="#fff">PDF</text><g><rect x="90" y="210" width="430" height="190" rx="24" fill="#fff"/><rect x="560" y="210" width="430" height="190" rx="24" fill="#fff"/><rect x="1030" y="210" width="478" height="190" rx="24" fill="#fff"/><text x="130" y="265" font-family="Arial" font-size="18" fill="#76837c">Producción</text><text x="130" y="335" font-family="Arial" font-size="54" fill="#173b32" font-weight="700">12,480</text><text x="600" y="265" font-family="Arial" font-size="18" fill="#76837c">Costos registrados</text><text x="600" y="335" font-family="Arial" font-size="54" fill="#173b32" font-weight="700">L 84,920</text><text x="1070" y="265" font-family="Arial" font-size="18" fill="#76837c">Rendimiento promedio</text><text x="1070" y="335" font-family="Arial" font-size="54" fill="#173b32" font-weight="700">78.4%</text></g><rect x="90" y="440" width="900" height="410" rx="26" fill="#fff"/><text x="135" y="500" font-family="Arial" font-size="21" fill="#173b32" font-weight="700">Producción por período</text><polyline points="150,760 270,700 390,720 510,610 630,650 750,530 880,560" fill="none" stroke="#3f7852" stroke-width="12" stroke-linecap="round" stroke-linejoin="round"/><path d="M150 760 270 700 390 720 510 610 630 650 750 530 880 560V800H150Z" fill="#b7d66c" opacity=".2"/><rect x="1030" y="440" width="478" height="410" rx="26" fill="#fff"/><text x="1075" y="500" font-family="Arial" font-size="21" fill="#173b32" font-weight="700">Distribución de costos</text><circle cx="1268" cy="660" r="115" fill="none" stroke="#e6ebdf" stroke-width="46"/><path d="M1268 545a115 115 0 0 1 101 170" fill="none" stroke="#3f7852" stroke-width="46"/><path d="M1369 715a115 115 0 0 1-175 37" fill="none" stroke="#b66b3d" stroke-width="46"/><text x="1268" y="665" font-family="Arial" font-size="28" text-anchor="middle" fill="#173b32" font-weight="700">100%</text></svg>
