<svg xmlns="http://www.w3.org/2000/svg" width="1600" height="960" viewBox="0 0 1600 960"><defs><linearGradient id="b" x1="0" x2="1"><stop stop-color="#14372e"/><stop offset="1" stop-color="#285f49"/></linearGradient></defs><rect width="1600" height="960" rx="44" fill="#f6f5ef"/><rect x="0" width="1600" height="210" fill="url(#b)"/><text x="90" y="98" font-family="Georgia" font-size="52" fill="#fff">Trazabilidad</text><text x="90" y="145" font-family="Arial" font-size="20" fill="#bdd0c6">Cadena verificable desde el origen hasta el inventario</text><rect x="90" y="260" width="1420" height="610" rx="28" fill="#fff"/><g stroke="#9ab875" stroke-width="8"><line x1="260" y1="500" x2="1340" y2="500"/></g><g fill="#173b32" stroke="#d7e5c7" stroke-width="12"><circle cx="260" cy="500" r="70"/><circle cx="530" cy="500" r="70"/><circle cx="800" cy="500" r="70"/><circle cx="1070" cy="500" r="70"/><circle cx="1340" cy="500" r="70"/></g><g font-family="Arial" font-size="20" fill="#173b32" text-anchor="middle" font-weight="700"><text x="260" y="630">Finca</text><text x="530" y="630">Lote</text><text x="800" y="630">Cosecha</text><text x="1070" y="630">Beneficio</text><text x="1340" y="630">Inventario</text></g><g fill="none" stroke="#b7d66c" stroke-width="5"><path d="M230 500h60M500 500h60M770 500h60M1040 500h60M1310 500h60"/></g><g font-family="Arial" font-size="15" fill="#fff" text-anchor="middle"><text x="260" y="506">ORIGEN</text><text x="530" y="506">SHA-256</text><text x="800" y="506">SHA-256</text><text x="1070" y="506">SHA-256</text><text x="1340" y="506">VERIFICADO</text></g><rect x="195" y="710" width="1210" height="86" rx="16" fill="#eff4e9"/><text x="235" y="748" font-family="Arial" font-size="16" fill="#668072">Hash del último registro</text><text x="235" y="778" font-family="monospace" font-size="17" fill="#254f40">a1d3c9e4...7f82b0c6 — cadena íntegra</text></svg>
